<svg width="557" height="125" viewBox="0 0 557 125" fill="none" xmlns="http://www.w3.org/2000/svg">
<circle cx="346" cy="48" r="5.5" fill="#00D68F" stroke="white"/>
<path d="M1 123.977C1 123.977 80.9488 126.209 154.385 86.4858C331.822 -9.49238 328.751 127.269 412.599 102.482C482.197 81.9078 556 24 556 24" stroke="#3366FF" stroke-width="2" stroke-linecap="round"/>
<path d="M1 124C1 124 95.4352 51.4718 162.856 51.2955C210.579 51.1708 245.591 118.887 291.216 104.99C338.193 90.6802 335.704 32.9689 382.916 19.4435C421.291 8.44955 445.901 41.7623 485.216 37.8502C535.261 32.8704 556 1 556 1" stroke="#00D68F" stroke-width="2" stroke-linecap="round"/>
<g filter="url(#filter0_b_1033_426)">
<rect x="351" y="6" width="50" height="36" rx="4" fill="#2E3A59" fill-opacity="0.4"/>
</g>
<path d="M363.464 27V18.6H366.476C367.18 18.6 367.784 18.712 368.288 18.936C368.792 19.16 369.18 19.484 369.452 19.908C369.724 20.324 369.86 20.832 369.86 21.432C369.86 22.016 369.724 22.52 369.452 22.944C369.18 23.368 368.792 23.692 368.288 23.916C367.784 24.14 367.18 24.252 366.476 24.252H363.8L364.076 23.964V27H363.464ZM364.076 24L363.8 23.7H366.476C367.38 23.7 368.064 23.504 368.528 23.112C369 22.712 369.236 22.152 369.236 21.432C369.236 20.704 369 20.144 368.528 19.752C368.064 19.352 367.38 19.152 366.476 19.152H363.8L364.076 18.852V24ZM374.146 27.048C373.546 27.048 373.01 26.912 372.538 26.64C372.074 26.368 371.702 25.992 371.422 25.512C371.15 25.032 371.014 24.484 371.014 23.868C371.014 23.244 371.15 22.696 371.422 22.224C371.702 21.744 372.074 21.368 372.538 21.096C373.01 20.824 373.546 20.688 374.146 20.688C374.746 20.688 375.282 20.824 375.754 21.096C376.226 21.368 376.598 21.744 376.87 22.224C377.142 22.696 377.278 23.244 377.278 23.868C377.278 24.484 377.142 25.032 376.87 25.512C376.598 25.992 376.226 26.368 375.754 26.64C375.282 26.912 374.746 27.048 374.146 27.048ZM374.146 26.508C374.626 26.508 375.058 26.4 375.442 26.184C375.826 25.96 376.126 25.648 376.342 25.248C376.558 24.848 376.666 24.388 376.666 23.868C376.666 23.34 376.558 22.88 376.342 22.488C376.126 22.088 375.826 21.78 375.442 21.564C375.058 21.34 374.626 21.228 374.146 21.228C373.666 21.228 373.234 21.34 372.85 21.564C372.474 21.78 372.174 22.088 371.95 22.488C371.734 22.88 371.626 23.34 371.626 23.868C371.626 24.388 371.734 24.848 371.95 25.248C372.174 25.648 372.474 25.96 372.85 26.184C373.234 26.4 373.666 26.508 374.146 26.508ZM379.139 27V20.736H379.739V27H379.139ZM379.439 19.212C379.303 19.212 379.187 19.164 379.091 19.068C378.995 18.972 378.947 18.86 378.947 18.732C378.947 18.596 378.995 18.48 379.091 18.384C379.187 18.288 379.303 18.24 379.439 18.24C379.583 18.24 379.699 18.288 379.787 18.384C379.883 18.472 379.931 18.584 379.931 18.72C379.931 18.856 379.883 18.972 379.787 19.068C379.699 19.164 379.583 19.212 379.439 19.212ZM385.328 20.688C385.84 20.688 386.284 20.788 386.66 20.988C387.044 21.18 387.34 21.476 387.548 21.876C387.764 22.268 387.872 22.756 387.872 23.34V27H387.272V23.388C387.272 22.684 387.092 22.148 386.732 21.78C386.38 21.412 385.884 21.228 385.244 21.228C384.756 21.228 384.332 21.328 383.972 21.528C383.612 21.728 383.336 22.008 383.144 22.368C382.96 22.728 382.868 23.16 382.868 23.664V27H382.268V20.736H382.844V22.476L382.76 22.284C382.952 21.788 383.268 21.4 383.708 21.12C384.148 20.832 384.688 20.688 385.328 20.688ZM392.166 27.048C391.614 27.048 391.19 26.896 390.894 26.592C390.606 26.288 390.462 25.872 390.462 25.344V19.368H391.062V25.284C391.062 25.684 391.162 25.992 391.362 26.208C391.562 26.424 391.85 26.532 392.226 26.532C392.618 26.532 392.942 26.416 393.198 26.184L393.45 26.604C393.29 26.756 393.094 26.868 392.862 26.94C392.638 27.012 392.406 27.048 392.166 27.048ZM389.31 21.252V20.736H393.054V21.252H389.31Z" fill="white"/>
<defs>
<filter id="filter0_b_1033_426" x="343" y="-2" width="66" height="52" filterUnits="userSpaceOnUse" color-interpolation-filters="sRGB">
<feFlood flood-opacity="0" result="BackgroundImageFix"/>
<feGaussianBlur in="BackgroundImageFix" stdDeviation="4"/>
<feComposite in2="SourceAlpha" operator="in" result="effect1_backgroundBlur_1033_426"/>
<feBlend mode="normal" in="SourceGraphic" in2="effect1_backgroundBlur_1033_426" result="shape"/>
</filter>
</defs>
</svg>
