<svg width="32" height="32" viewBox="0 0 32 32" fill="none" xmlns="http://www.w3.org/2000/svg">
<path d="M28.0799 15.76L27.8666 15.4667C27.4933 15.0133 27.0533 14.6533 26.5466 14.3867C25.8666 14 25.0933 13.8 24.2933 13.8H7.69327C6.89327 13.8 6.13327 14 5.43994 14.3867C4.91994 14.6667 4.45327 15.0533 4.0666 15.5333C3.3066 16.5067 2.9466 17.7067 3.0666 18.9067L3.55994 25.1333C3.73327 27.0133 3.95994 29.3333 8.1866 29.3333H23.8133C28.0399 29.3333 28.2533 27.0133 28.4399 25.12L28.9333 18.92C29.0533 17.8 28.7599 16.68 28.0799 15.76ZM19.1866 23.12H12.7999C12.2799 23.12 11.8666 22.6933 11.8666 22.1867C11.8666 21.68 12.2799 21.2533 12.7999 21.2533H19.1866C19.7066 21.2533 20.1199 21.68 20.1199 22.1867C20.1199 22.7067 19.7066 23.12 19.1866 23.12Z" fill="#39DE54"/>
<path opacity="0.4" d="M4.50684 15.08C4.80017 14.8133 5.0935 14.5733 5.44017 14.3867C6.12017 14 6.8935 13.8 7.6935 13.8H24.3068C25.1068 13.8 25.8668 14 26.5602 14.3867C26.9068 14.5733 27.2135 14.8133 27.4935 15.0933V14.3867V13.0933C27.4935 8.33332 26.0402 6.87999 21.2802 6.87999H18.1068C17.5202 6.87999 17.5068 6.86666 17.1602 6.41332L15.5602 4.26666C14.8002 3.27999 14.2002 2.66666 12.2935 2.66666H10.7202C5.96017 2.66666 4.50684 4.11999 4.50684 8.87999V14.4V15.08Z" fill="#39DE54"/>
</svg>
