<svg width="24" height="25" viewBox="0 0 24 25" fill="none" xmlns="http://www.w3.org/2000/svg">
<path d="M21.4702 19.0289V5.02893C21.4702 3.02893 20.4702 2.02893 18.4702 2.02893H14.4702C12.4702 2.02893 11.4702 3.02893 11.4702 5.02893V19.0289C11.4702 21.0289 12.4702 22.0289 14.4702 22.0289H18.4702C20.4702 22.0289 21.4702 21.0289 21.4702 19.0289Z" stroke="white" stroke-width="1.5" stroke-linecap="round"/>
<path d="M11.4702 6.02893H16.4702" stroke="white" stroke-width="1.5" stroke-linecap="round"/>
<path d="M11.4702 18.0289H15.4702" stroke="white" stroke-width="1.5" stroke-linecap="round"/>
<path d="M11.4702 13.9789L16.4702 14.0289" stroke="white" stroke-width="1.5" stroke-linecap="round"/>
<path d="M11.4702 10.0289H14.4702" stroke="white" stroke-width="1.5" stroke-linecap="round"/>
<path d="M5.48978 2.02893C3.85978 2.02893 2.52979 3.35893 2.52979 4.97893V17.9389C2.52979 18.3889 2.71979 19.0689 2.94979 19.4589L3.76979 20.8189C4.70979 22.3889 6.25979 22.3889 7.19979 20.8189L8.01979 19.4589C8.24979 19.0689 8.43979 18.3889 8.43979 17.9389V4.97893C8.43979 3.35893 7.10978 2.02893 5.48978 2.02893Z" stroke="white" stroke-width="1.5" stroke-linecap="round"/>
<path d="M8.43979 7.02893H2.52979" stroke="white" stroke-width="1.5" stroke-linecap="round"/>
</svg>
